<?xml version="1.0" encoding="iso-8859-1"?>
<!-- Uploaded to: SVG Repo, www.svgrepo.com, Generator: SVG Repo Mixer Tools -->
<svg height="800px" width="800px" version="1.1" id="Layer_1" xmlns="http://www.w3.org/2000/svg" xmlns:xlink="http://www.w3.org/1999/xlink" 
	 viewBox="0 0 392.663 392.663" xml:space="preserve">
<path style="fill:#FFFFFF;" d="M196.331,83.653c-62.125,0-112.743,50.554-112.743,112.743s50.618,112.679,112.743,112.679
	s112.743-50.554,112.743-112.743S258.457,83.653,196.331,83.653z"/>
<path style="fill:#56ACE0;" d="M196.331,106.02c-36.719,0-68.331,22.044-82.424,53.463h39.176c6.012,0,10.925,4.848,10.925,10.925
	c0,6.012-4.848,10.925-10.925,10.925h-45.834c-0.84,4.913-1.422,9.956-1.422,15.127c0,1.164,0.129,2.327,0.129,3.491h25.729
	c6.012,0,10.925,4.848,10.925,10.925c0,6.077-4.848,10.925-10.925,10.925h-22.174c10.99,37.56,45.64,65.164,86.691,65.164
	c49.842,0,90.44-40.598,90.44-90.44S246.174,106.02,196.331,106.02z"/>
<g>
	<path style="fill:#194F82;" d="M319.677,57.535l-16.937,16.937c-4.267,4.267-4.267,11.119,0,15.451
		c4.267,4.331,11.119,4.267,15.451,0l16.937-16.937c4.267-4.267,4.267-11.119,0-15.451
		C330.861,53.269,324.008,53.269,319.677,57.535z"/>
	<path style="fill:#194F82;" d="M74.473,302.739l-16.937,16.937c-4.267,4.267-4.267,11.119,0,15.451
		c4.267,4.267,11.119,4.267,15.451,0l16.937-16.937c4.267-4.267,4.267-11.119,0-15.451
		C85.592,298.473,78.739,298.473,74.473,302.739z"/>
	<path style="fill:#194F82;" d="M318.19,302.739c-4.267-4.267-11.119-4.267-15.451,0c-4.267,4.267-4.267,11.119,0,15.451
		l16.937,16.937c4.267,4.267,11.119,4.267,15.451,0c4.267-4.267,4.267-11.119,0-15.451L318.19,302.739z"/>
	<path style="fill:#194F82;" d="M74.473,89.923c4.267,4.267,11.119,4.267,15.451,0c4.267-4.267,4.267-11.119,0-15.451L72.986,57.535
		c-4.267-4.267-11.119-4.267-15.451,0c-4.267,4.267-4.267,11.119,0,15.451L74.473,89.923z"/>
	<path style="fill:#194F82;" d="M196.331,45.834c6.012,0,10.925-4.848,10.925-10.925V10.925C207.257,4.913,202.408,0,196.331,0
		c-6.012,0-10.925,4.848-10.925,10.925v23.984C185.406,40.921,190.319,45.834,196.331,45.834z"/>
	<path style="fill:#194F82;" d="M196.331,346.828c-6.012,0-10.925,4.848-10.925,10.925v23.984c0,6.012,4.848,10.925,10.925,10.925
		c6.012,0,10.925-4.848,10.925-10.925v-23.984C207.257,351.741,202.343,346.828,196.331,346.828z"/>
	<path style="fill:#194F82;" d="M381.737,185.406h-23.984c-6.012,0-10.925,4.848-10.925,10.925c0,6.012,4.848,10.925,10.925,10.925
		h23.984c6.012,0,10.925-4.848,10.925-10.925S387.749,185.406,381.737,185.406z"/>
	<path style="fill:#194F82;" d="M34.909,185.406H10.925C4.913,185.406,0,190.255,0,196.331c0,6.012,4.848,10.925,10.925,10.925
		h23.984c6.012,0,10.925-4.848,10.925-10.925C45.834,190.319,40.921,185.406,34.909,185.406z"/>
	<path style="fill:#194F82;" d="M196.331,62.319c-73.891,0-134.012,60.121-134.012,134.012s60.121,134.012,134.012,134.012
		s134.012-60.121,134.012-134.012S270.222,62.319,196.331,62.319z M196.331,309.075c-62.125,0-112.743-50.554-112.743-112.743
		S134.206,83.653,196.331,83.653s112.743,50.554,112.743,112.743S258.457,309.075,196.331,309.075z"/>
</g>
</svg>