<svg xmlns="http://www.w3.org/2000/svg" id="Layer_1" x="0" y="0" version="1.1" viewBox="0 0 318 305" xml:space="preserve"><style>.st0{opacity:.1;enable-background:new}.st0,.st2,.st3{fill:#c4ddf9}.st3{opacity:.1;enable-background:new}</style><path d="M45.8-.5H.5v15.9l109.3 45.5 47.9 20 30-74.6 2.7-6.8z" class="st0"/><path d="M190.4-.5h6.9l-9.6 6.8-77.9 54.6L79 82.5.5 27.7V1.5l45.3-2z" class="st0"/><g opacity=".2"><circle cx="2" cy="230" r="2" class="st2"/><circle cx="2" cy="240" r="2" class="st2"/><circle cx="2" cy="250" r="2" class="st2"/><circle cx="2" cy="260" r="2" class="st2"/><circle cx="2" cy="270" r="2" class="st2"/><circle cx="2" cy="280" r="2" class="st2"/><circle cx="2" cy="290" r="2" class="st2"/><circle cx="2" cy="300" r="2" class="st2"/><circle cx="9" cy="230" r="2" class="st2"/><circle cx="9" cy="240" r="2" class="st2"/><circle cx="9" cy="250" r="2" class="st2"/><circle cx="9" cy="260" r="2" class="st2"/><circle cx="9" cy="270" r="2" class="st2"/><circle cx="9" cy="280" r="2" class="st2"/><circle cx="9" cy="290" r="2" class="st2"/><circle cx="9" cy="300" r="2" class="st2"/><circle cx="16" cy="240" r="2" class="st2"/><circle cx="16" cy="250" r="2" class="st2"/><circle cx="16" cy="260" r="2" class="st2"/><circle cx="16" cy="270" r="2" class="st2"/><circle cx="16" cy="280" r="2" class="st2"/><circle cx="16" cy="290" r="2" class="st2"/><circle cx="16" cy="300" r="2" class="st2"/><circle cx="23" cy="240" r="2" class="st2"/><circle cx="23" cy="250" r="2" class="st2"/><circle cx="23" cy="260" r="2" class="st2"/><circle cx="23" cy="270" r="2" class="st2"/><circle cx="23" cy="280" r="2" class="st2"/><circle cx="23" cy="290" r="2" class="st2"/><circle cx="23" cy="300" r="2" class="st2"/><circle cx="30" cy="250" r="2" class="st2"/><circle cx="30" cy="260" r="2" class="st2"/><circle cx="30" cy="270" r="2" class="st2"/><circle cx="30" cy="280" r="2" class="st2"/><circle cx="30" cy="290" r="2" class="st2"/><circle cx="30" cy="300" r="2" class="st2"/><circle cx="37" cy="250" r="2" class="st2"/><circle cx="37" cy="260" r="2" class="st2"/><circle cx="37" cy="270" r="2" class="st2"/><circle cx="37" cy="280" r="2" class="st2"/><circle cx="37" cy="290" r="2" class="st2"/><circle cx="37" cy="300" r="2" class="st2"/><circle cx="44" cy="260" r="2" class="st2"/><circle cx="44" cy="270" r="2" class="st2"/><circle cx="44" cy="280" r="2" class="st2"/><circle cx="44" cy="290" r="2" class="st2"/><circle cx="44" cy="300" r="2" class="st2"/><circle cx="51" cy="260" r="2" class="st2"/><circle cx="51" cy="270" r="2" class="st2"/><circle cx="51" cy="280" r="2" class="st2"/><circle cx="51" cy="290" r="2" class="st2"/><circle cx="51" cy="300" r="2" class="st2"/><circle cx="58" cy="270" r="2" class="st2"/><circle cx="58" cy="280" r="2" class="st2"/><circle cx="58" cy="290" r="2" class="st2"/><circle cx="58" cy="300" r="2" class="st2"/><circle cx="65" cy="270" r="2" class="st2"/><circle cx="65" cy="280" r="2" class="st2"/><circle cx="65" cy="290" r="2" class="st2"/><circle cx="65" cy="300" r="2" class="st2"/><circle cx="72" cy="280" r="2" class="st2"/><circle cx="72" cy="290" r="2" class="st2"/><circle cx="72" cy="300" r="2" class="st2"/><circle cx="79" cy="280" r="2" class="st2"/><circle cx="79" cy="290" r="2" class="st2"/><circle cx="79" cy="300" r="2" class="st2"/><circle cx="86" cy="290" r="2" class="st2"/><circle cx="86" cy="300" r="2" class="st2"/><circle cx="93" cy="300" r="2" class="st2"/><circle cx="100" cy="300" r="2" class="st2"/></g><path d="M317.5 258.3v46.2h-49l-1.9-6.9-6.6-24.7z" class="st3"/><path d="M317.5 279.1v25.4H250l-.2-.7 16.8-6.2z" class="st3"/></svg>